<svg width="512" height="512" viewBox="0 0 512 512" fill="none" xmlns="http://www.w3.org/2000/svg">
  <rect width="512" height="512" rx="112" fill="#F6EFE3"/>

  <circle cx="142" cy="118" r="88" fill="#F6D7C8" opacity=".38"/>
  <circle cx="390" cy="398" r="116" fill="#E4E9D8" opacity=".32"/>

  <g transform="translate(256 261) scale(0.82) translate(-256 -261)">
    <path
      d="M154 238L256 148L358 238V370C358 381 349 390 338 390H174C163 390 154 381 154 370V238Z"
      fill="#FFF9EF"
      stroke="#7E8A63"
      stroke-width="18"
      stroke-linejoin="round"/>

    <path
      d="M124 250L256 132L388 250"
      stroke="#7E8A63"
      stroke-width="22"
      stroke-linecap="round"
      stroke-linejoin="round"/>

    <path
      d="M256 246C229 221 188 238 188 273C188 314 256 346 256 346C256 346 324 314 324 273C324 238 283 221 256 246Z"
      fill="#E4E9D8"
      stroke="#7E8A63"
      stroke-width="14"
      stroke-linejoin="round"/>

    <path
      d="M256 216C256 183 280 160 316 151C322 188 298 215 256 216Z"
      fill="#9FA784"
      stroke="#7E8A63"
      stroke-width="12"
      stroke-linejoin="round"/>

    <path
      d="M256 216C253 191 237 174 214 166"
      stroke="#7E8A63"
      stroke-width="12"
      stroke-linecap="round"/>

    <circle cx="346" cy="154" r="16" fill="#EFB75A"/>
  </g>
</svg>
